# xmcd
#
# Track frame offsets:
#	150
#	15605
#	37131
#	57305
#	76679
#	96273
#	113268
#	130196
#	148749
#	168503
#	187346
#	205643
#	224850
#	243427
#	260699
#
# Disc length: 3692 seconds
#
# Revision: 1
# Processed by: cddbd v1.5.2PL0 Copyright (c) Steve Scherf et al.
# Submitted via: audiograbber 1.83.01
#
DISCID=dd0e6a0f
DTITLE=Chartbuster - CB-E8-24
DYEAR=1900
DGENRE=BritPop
TTITLE0=American Hi Fi - Flavor Of The Weak
TTITLE1=Avant - Makin' Good Love
TTITLE2=No Doubt - Simple Kind Of Life
TTITLE3=Train - Get To Me
TTITLE4=Dido - Here With Me
TTITLE5=B.B.Mark - Back Here
TTITLE6=Barenaked Ladies - Falling For The First Time
TTITLE7=Cher - A Different Kind Of Love Song
TTITLE8=LL Cool J - Luv U Better
TTITLE9=Whitney Houston - One Of Those Days
TTITLE10=Sugar Ray - Is She Really Going Out With Him
TTITLE11=Lara Fabian - I Will Love Again
TTITLE12=Puddle Of Mudd - Heel Over Head
TTITLE13=Lindsay Lohan - Over
TTITLE14=Ben Harper - Steal My Kisses
EXTD=
EXTT0=
EXTT1=
EXTT2=
EXTT3=
EXTT4=
EXTT5=
EXTT6=
EXTT7=
EXTT8=
EXTT9=
EXTT10=
EXTT11=
EXTT12=
EXTT13=
EXTT14=
PLAYORDER=
